<?xml version="1.0" encoding="iso-8859-1"?>
<!-- Generator: Adobe Illustrator 16.0.0, SVG Export Plug-In . SVG Version: 6.00 Build 0)  -->
<!DOCTYPE svg PUBLIC "-//W3C//DTD SVG 1.1//EN" "http://www.w3.org/Graphics/SVG/1.1/DTD/svg11.dtd">
<svg version="1.1" xmlns="http://www.w3.org/2000/svg" xmlns:xlink="http://www.w3.org/1999/xlink" x="0px" y="0px"
	 width="42.392px" height="53px" viewBox="0 0 42.392 53" style="enable-background:new 0 0 42.392 53;" xml:space="preserve">
<g id="_x31_8_x5F_bold">
	<g>
		<g>
			<path style="fill:#44444D;" d="M24.726,53H2.5C1.119,53,0,51.881,0,50.5V9.907c0-1.381,1.119-2.5,2.5-2.5S5,8.526,5,9.907V48
				h19.726c8.749,0,12.666-4.967,12.666-9.888c0-4.87-3.964-10.112-12.666-10.112h-5.116c-1.381,0-2.5-1.119-2.5-2.5
				s1.119-2.5,2.5-2.5h5.116c11.598,0,17.666,7.603,17.666,15.112C42.392,45.283,36.863,53,24.726,53z"/>
		</g>
		<g>
			<path style="fill:#44444D;" d="M19.609,28H2.5C1.119,28,0,26.881,0,25.5S1.119,23,2.5,23h17.109c3.402,0,6.229-1.01,8.172-2.921
				c1.671-1.643,2.592-3.844,2.592-6.197C30.373,9.461,27.045,5,19.609,5H2.5C1.119,5,0,3.881,0,2.5S1.119,0,2.5,0h17.109
				c10.349,0,15.764,6.983,15.764,13.882C35.373,20.897,29.958,28,19.609,28z"/>
		</g>
	</g>
</g>
<g id="Layer_1">
</g>
</svg>
