<?xml version="1.0" encoding="iso-8859-1"?>
<!-- Generator: Adobe Illustrator 16.0.0, SVG Export Plug-In . SVG Version: 6.00 Build 0)  -->
<!DOCTYPE svg PUBLIC "-//W3C//DTD SVG 1.1//EN" "http://www.w3.org/Graphics/SVG/1.1/DTD/svg11.dtd">
<svg version="1.1" xmlns="http://www.w3.org/2000/svg" xmlns:xlink="http://www.w3.org/1999/xlink" x="0px" y="0px"
	 width="49.764px" height="57.691px" viewBox="0 0 49.764 57.691" style="enable-background:new 0 0 49.764 57.691;"
	 xml:space="preserve">
<g id="_x33_8_x5F_copy">
	<g>
		<g>
			<g>
				<g>
					<path style="fill:#44444D;" d="M35.01,46.551H1.846C0.827,46.551,0,45.725,0,44.705V21.969c0-1.02,0.826-1.846,1.846-1.846
						s1.846,0.826,1.846,1.846v20.891h29.472V3.691h-14.99v12.766c0,1.02-0.826,1.846-1.846,1.846H1.846
						c-0.745,0-1.417-0.447-1.704-1.136c-0.286-0.688-0.132-1.48,0.393-2.01L15.014,0.549c0.01-0.009,0.02-0.019,0.029-0.028
						c0.166-0.161,0.354-0.285,0.556-0.371C15.823,0.053,16.07,0,16.329,0H35.01c1.02,0,1.846,0.826,1.846,1.846v42.859
						C36.855,45.725,36.029,46.551,35.01,46.551z M6.275,14.611h8.208v-8.28L6.275,14.611z"/>
				</g>
			</g>
		</g>
		<g>
			<g>
				<g>
					<path style="fill:#44444D;" d="M47.918,57.691H14.754c-1.02,0-1.846-0.826-1.846-1.846v-5.963c0-1.02,0.826-1.846,1.846-1.846
						s1.846,0.826,1.846,1.846V54h29.472V14.832h-5.714c-1.02,0-1.846-0.826-1.846-1.846s0.826-1.846,1.846-1.846h7.56
						c1.02,0,1.846,0.826,1.846,1.846v42.859C49.764,56.865,48.938,57.691,47.918,57.691z"/>
				</g>
			</g>
		</g>
	</g>
</g>
<g id="Layer_1">
</g>
</svg>
