<?xml version="1.0" encoding="iso-8859-1"?>
<!-- Generator: Adobe Illustrator 16.0.0, SVG Export Plug-In . SVG Version: 6.00 Build 0)  -->
<!DOCTYPE svg PUBLIC "-//W3C//DTD SVG 1.1//EN" "http://www.w3.org/Graphics/SVG/1.1/DTD/svg11.dtd">
<svg version="1.1" xmlns="http://www.w3.org/2000/svg" xmlns:xlink="http://www.w3.org/1999/xlink" x="0px" y="0px"
	 width="57.685px" height="57.685px" viewBox="0 0 57.685 57.685" style="enable-background:new 0 0 57.685 57.685;"
	 xml:space="preserve">
<g id="_x33_7_x5F_cut">
	<g>
		<g>
			<g>
				<g>
					<path style="fill:#44444D;" d="M33.035,35.575c-0.859,0-1.629-0.604-1.807-1.479c-0.204-0.999,0.441-1.974,1.44-2.177
						l16.052-3.268c2.136-0.435,4.507-1.355,5.123-3.307l-16.499,3.357c-0.999,0.203-1.974-0.441-2.177-1.44
						c-0.204-0.999,0.441-1.974,1.44-2.177l18.738-3.813c0.479-0.099,0.979-0.002,1.387,0.27c0.409,0.27,0.693,0.691,0.79,1.171
						c0.748,3.675-0.979,8.116-8.066,9.557l-16.052,3.268C33.281,35.563,33.157,35.575,33.035,35.575z"/>
				</g>
				<g>
					<path style="fill:#44444D;" d="M10.393,34.149c-0.859,0-1.629-0.604-1.807-1.479c-0.204-0.999,0.441-1.974,1.44-2.177
						l11.164-2.271c0.995-0.204,1.974,0.44,2.177,1.44c0.204,0.999-0.441,1.974-1.44,2.177l-11.164,2.271
						C10.639,34.137,10.515,34.149,10.393,34.149z"/>
				</g>
				<g>
					<path style="fill:#44444D;" d="M6.501,34.844c-3.075,0-5.753-2.19-6.368-5.208c-0.347-1.704-0.01-3.439,0.949-4.889
						s2.426-2.438,4.129-2.783l2.957-0.603c0.43-0.088,0.867-0.132,1.301-0.132c3.077,0,5.757,2.19,6.37,5.208
						c0.348,1.702,0.011,3.438-0.948,4.889c-0.958,1.449-2.425,2.438-4.128,2.785l-2.961,0.602
						C7.374,34.8,6.936,34.844,6.501,34.844z M9.469,24.922c-0.188,0-0.378,0.02-0.564,0.058l-2.957,0.603
						c-0.738,0.15-1.372,0.577-1.786,1.203c-0.415,0.626-0.561,1.377-0.411,2.113c0.304,1.49,1.809,2.504,3.315,2.196l2.962-0.602
						c0.735-0.149,1.369-0.577,1.784-1.204s0.561-1.378,0.41-2.114C11.956,25.869,10.798,24.922,9.469,24.922z"/>
				</g>
			</g>
			<g>
				<g>
					<path style="fill:#44444D;" d="M29.355,57.685c-0.436,0-0.874-0.044-1.303-0.132c-1.702-0.346-3.169-1.334-4.128-2.783
						s-1.297-3.186-0.949-4.888c0.613-3.019,3.294-5.209,6.372-5.209c0.434,0,0.871,0.044,1.299,0.131
						c3.516,0.717,5.792,4.158,5.077,7.672C35.112,55.493,32.435,57.685,29.355,57.685z M29.348,48.365
						c-1.33,0-2.489,0.947-2.755,2.253c-0.149,0.736-0.004,1.486,0.411,2.113c0.415,0.626,1.049,1.054,1.785,1.204
						c1.509,0.306,3.016-0.704,3.316-2.194c0.31-1.521-0.675-3.01-2.195-3.319C29.726,48.385,29.535,48.365,29.348,48.365z"/>
				</g>
				<g>
					<path style="fill:#44444D;" d="M23.957,26.495c-0.122,0-0.246-0.013-0.37-0.038c-0.999-0.203-1.645-1.178-1.44-2.177
						l3.269-16.054c1.44-7.085,5.876-8.815,9.557-8.065c0.479,0.097,0.901,0.381,1.171,0.79c0.271,0.408,0.367,0.907,0.27,1.387
						l-3.813,18.737c-0.203,0.999-1.177,1.646-2.177,1.44c-0.999-0.203-1.645-1.178-1.44-2.177L32.339,3.84
						c-1.951,0.617-2.872,2.987-3.307,5.123l-3.269,16.054C25.586,25.892,24.816,26.495,23.957,26.495z"/>
				</g>
				<g>
					<path style="fill:#44444D;" d="M24.786,52.097c-0.122,0-0.245-0.013-0.369-0.037c-0.999-0.203-1.645-1.178-1.442-2.177
						l2.868-14.125c0.203-0.999,1.183-1.636,2.177-1.442c0.999,0.203,1.645,1.178,1.442,2.177l-2.868,14.125
						C26.416,51.492,25.646,52.097,24.786,52.097z"/>
				</g>
			</g>
		</g>
		<g>
			<g>
				<path style="fill:#44444D;" d="M6.948,53.233c-0.649,0-1.3-0.271-1.76-0.73c-0.47-0.47-0.74-1.109-0.74-1.77
					s0.271-1.3,0.74-1.771c0.92-0.93,2.6-0.93,3.53,0c0.47,0.471,0.729,1.11,0.729,1.771s-0.26,1.3-0.729,1.77
					C8.259,52.963,7.608,53.233,6.948,53.233z"/>
			</g>
			<g>
				<path style="fill:#44444D;" d="M10.129,47.553c-0.971-0.979-0.971-2.56,0-3.54l0,0c0.979-0.97,2.56-0.97,3.539,0l0,0
					c0.98,0.98,0.98,2.561,0,3.54l0,0c-0.489,0.49-1.13,0.73-1.77,0.73l0,0C11.259,48.283,10.618,48.043,10.129,47.553z
					 M15.078,42.604c-0.979-0.971-0.979-2.561,0-3.53l0,0c0.98-0.98,2.561-0.98,3.54,0l0,0c0.971,0.97,0.971,2.56,0,3.53l0,0
					c-0.489,0.489-1.13,0.729-1.77,0.729l0,0C16.208,43.333,15.568,43.093,15.078,42.604z M20.028,37.663
					c-0.979-0.979-0.979-2.56,0-3.54l0,0c0.97-0.97,2.561-0.97,3.53,0l0,0c0.979,0.98,0.979,2.561,0,3.54l0,0
					c-0.49,0.48-1.13,0.73-1.771,0.73l0,0C21.148,38.394,20.509,38.144,20.028,37.663z M24.969,32.713
					c-0.971-0.979-0.971-2.56,0-3.54l0,0c0.979-0.97,2.56-0.97,3.54,0l0,0c0.97,0.98,0.97,2.561,0,3.54l0,0
					c-0.49,0.49-1.13,0.73-1.771,0.73l0,0C26.099,33.443,25.458,33.203,24.969,32.713z M29.918,27.763
					c-0.979-0.97-0.979-2.56,0-3.529l0,0c0.98-0.98,2.561-0.98,3.53,0l0,0c0.98,0.97,0.98,2.56,0,3.529l0,0
					c-0.479,0.49-1.12,0.74-1.76,0.74l0,0C31.049,28.503,30.408,28.253,29.918,27.763z M34.868,22.823
					c-0.979-0.98-0.979-2.561,0-3.54l0,0c0.971-0.97,2.55-0.97,3.53,0l0,0c0.98,0.979,0.98,2.56,0,3.54l0,0
					c-0.49,0.49-1.13,0.729-1.77,0.729l0,0C35.988,23.553,35.349,23.313,34.868,22.823z M39.809,17.873
					c-0.97-0.979-0.97-2.56,0-3.53l0,0c0.979-0.979,2.56-0.979,3.54,0l0,0c0.97,0.971,0.97,2.551,0,3.53l0,0
					c-0.49,0.49-1.13,0.73-1.771,0.73l0,0C40.938,18.604,40.299,18.363,39.809,17.873z M44.759,12.934c-0.98-0.98-0.98-2.561,0-3.54
					l0,0c0.97-0.98,2.56-0.98,3.529,0l0,0c0.98,0.979,0.98,2.56,0,3.54l0,0c-0.479,0.479-1.12,0.729-1.76,0.729l0,0
					C45.889,13.663,45.248,13.413,44.759,12.934z"/>
			</g>
			<g>
				<path style="fill:#44444D;" d="M51.469,8.713c-0.65,0-1.301-0.26-1.771-0.729c-0.46-0.471-0.729-1.11-0.729-1.771
					s0.27-1.3,0.729-1.77c0.94-0.931,2.62-0.92,3.54,0c0.47,0.47,0.73,1.109,0.73,1.77s-0.261,1.3-0.73,1.771
					C52.778,8.453,52.129,8.713,51.469,8.713z"/>
			</g>
		</g>
	</g>
</g>
<g id="Layer_1">
</g>
</svg>
