<svg xmlns="http://www.w3.org/2000/svg" width="16" height="16" viewBox="0 0 16 16">
    <g fill="none" stroke="#000" stroke-linecap="round" stroke-linejoin="round" stroke-miterlimit="10">
        <path d="M14.036 6.839h-1.215a.469.469 0 0 1-.44-.328 4.428 4.428 0 0 0-.231-.554.47.47 0 0 1 .079-.544l.86-.86a.465.465 0 0 0 0-.657l-.985-.985a.465.465 0 0 0-.657 0l-.86.86a.468.468 0 0 1-.544.079 4.646 4.646 0 0 0-.554-.23.469.469 0 0 1-.328-.44V1.964a.464.464 0 0 0-.464-.464H7.304a.464.464 0 0 0-.464.464v1.215a.469.469 0 0 1-.328.44 4.765 4.765 0 0 0-.555.231.468.468 0 0 1-.544-.079l-.86-.86a.465.465 0 0 0-.657 0l-.985.985a.465.465 0 0 0 0 .657l.86.86c.144.144.17.362.079.544a4.646 4.646 0 0 0-.23.554.469.469 0 0 1-.44.328H1.964a.465.465 0 0 0-.464.465v1.393c0 .256.208.464.464.464h1.215c.203 0 .375.136.44.328.066.191.143.375.231.554a.47.47 0 0 1-.079.544l-.86.86a.465.465 0 0 0 0 .657l.985.985a.465.465 0 0 0 .657 0l.86-.86a.468.468 0 0 1 .544-.079c.179.088.363.166.554.231a.469.469 0 0 1 .328.44v1.215c0 .256.208.464.464.464h1.393a.464.464 0 0 0 .464-.464v-1.215c0-.203.136-.375.328-.44.191-.065.376-.142.554-.231a.468.468 0 0 1 .544.079l.86.86a.465.465 0 0 0 .657 0l.985-.985a.465.465 0 0 0 0-.657l-.86-.86a.468.468 0 0 1-.079-.544c.088-.179.166-.363.231-.554a.47.47 0 0 1 .44-.328h1.215a.464.464 0 0 0 .464-.464V7.304a.463.463 0 0 0-.463-.465z"/>
        <circle cx="8" cy="8" r="1.5"/>
    </g>
</svg>
