<?xml version="1.0" encoding="iso-8859-1"?>
<!-- Generator: Adobe Illustrator 16.0.0, SVG Export Plug-In . SVG Version: 6.00 Build 0)  -->
<!DOCTYPE svg PUBLIC "-//W3C//DTD SVG 1.1//EN" "http://www.w3.org/Graphics/SVG/1.1/DTD/svg11.dtd">
<svg version="1.1" xmlns="http://www.w3.org/2000/svg" xmlns:xlink="http://www.w3.org/1999/xlink" x="0px" y="0px" width="47.3px"
	 height="57.692px" viewBox="0 0 47.3 57.692" style="enable-background:new 0 0 47.3 57.692;" xml:space="preserve">
<g id="_x35_4_x5F_marker">
	<g>
		<g>
			<g>
				<path style="fill:#44444D;" d="M15.75,52.53H5.915c-2.206,0-4.058-0.893-5.081-2.45c-1.023-1.557-1.108-3.611-0.232-5.636
					l7.736-17.898c0.404-0.936,1.493-1.367,2.427-0.962c0.936,0.404,1.366,1.491,0.962,2.427L3.99,45.909
					c-0.373,0.863-0.398,1.645-0.07,2.144s1.056,0.786,1.995,0.786h9.835c2.55,0,5.675-2.054,6.688-4.395l2.407-5.566
					c0.405-0.936,1.493-1.367,2.427-0.962c0.937,0.404,1.366,1.491,0.962,2.427l-2.407,5.567
					C24.219,49.623,19.793,52.53,15.75,52.53z"/>
			</g>
			<g>
				<path style="fill:#44444D;" d="M30.57,38.001c-0.248,0-0.497-0.05-0.732-0.151L7.16,28.047
					c-0.835-0.361-1.283-1.276-1.055-2.158l1.684-6.492c0.256-0.986,1.257-1.578,2.251-1.323c0.986,0.256,1.579,1.264,1.323,2.251
					l-1.287,4.961l20.238,8.748l0.726-0.55c0.811-0.615,1.97-0.458,2.586,0.355c0.616,0.813,0.457,1.97-0.355,2.586l-1.584,1.201
					C31.359,37.874,30.967,38.001,30.57,38.001z"/>
			</g>
			<g>
				<path style="fill:#44444D;" d="M35.074,32.577c-1.054,0-2.104-0.216-3.099-0.646l-21.437-9.266
					C6.567,20.948,4.733,16.32,6.45,12.351l4.856-11.236c0.403-0.936,1.492-1.366,2.427-0.962c0.936,0.404,1.366,1.491,0.962,2.427
					L9.838,13.815c-0.908,2.103,0.063,4.552,2.166,5.462l21.437,9.266c1.014,0.438,2.141,0.452,3.177,0.042
					c1.035-0.41,1.848-1.194,2.285-2.207l4.856-11.234c0.404-0.936,1.492-1.366,2.427-0.962c0.936,0.404,1.366,1.491,0.962,2.427
					l-4.856,11.234c-0.829,1.918-2.36,3.4-4.313,4.175C37.037,32.391,36.055,32.577,35.074,32.577z"/>
			</g>
		</g>
		<g>
			<path style="fill:#44444D;" d="M45.39,57.692H3.274c-1.02,0-1.846-0.826-1.846-1.846s0.826-1.846,1.846-1.846H45.39
				c1.02,0,1.846,0.826,1.846,1.846S46.409,57.692,45.39,57.692z"/>
		</g>
	</g>
</g>
<g id="Layer_1">
</g>
</svg>
