<?xml version="1.0" encoding="iso-8859-1"?>
<!-- Generator: Adobe Illustrator 16.0.0, SVG Export Plug-In . SVG Version: 6.00 Build 0)  -->
<!DOCTYPE svg PUBLIC "-//W3C//DTD SVG 1.1//EN" "http://www.w3.org/Graphics/SVG/1.1/DTD/svg11.dtd">
<svg version="1.1" xmlns="http://www.w3.org/2000/svg" xmlns:xlink="http://www.w3.org/1999/xlink" x="0px" y="0px"
	 width="24.647px" height="51.692px" viewBox="0 0 24.647 51.692" style="enable-background:new 0 0 24.647 51.692;"
	 xml:space="preserve">
<g id="_x31_9_x5F_italic">
	<g>
		<g>
			<path style="fill:#44444D;" d="M9.106,51.692c-0.082,0-0.165-0.005-0.248-0.017c-1.011-0.136-1.72-1.064-1.584-2.075
				l5.797-43.148c0.136-1.011,1.071-1.723,2.075-1.584c1.011,0.136,1.72,1.065,1.584,2.075l-5.797,43.148
				C10.809,51.02,10.017,51.692,9.106,51.692z"/>
		</g>
		<g>
			<path style="fill:#44444D;" d="M16.363,51.692H1.846C0.827,51.692,0,50.865,0,49.846S0.827,48,1.846,48h14.517
				c1.02,0,1.846,0.826,1.846,1.846S17.383,51.692,16.363,51.692z"/>
		</g>
		<g>
			<path style="fill:#44444D;" d="M22.801,3.692H8.285c-1.02,0-1.846-0.827-1.846-1.846S7.265,0,8.285,0h14.516
				c1.02,0,1.847,0.827,1.847,1.846S23.82,3.692,22.801,3.692z"/>
		</g>
	</g>
</g>
<g id="Layer_1">
</g>
</svg>
