<?xml version="1.0" encoding="iso-8859-1"?>
<!-- Generator: Adobe Illustrator 16.0.0, SVG Export Plug-In . SVG Version: 6.00 Build 0)  -->
<!DOCTYPE svg PUBLIC "-//W3C//DTD SVG 1.1//EN" "http://www.w3.org/Graphics/SVG/1.1/DTD/svg11.dtd">
<svg version="1.1" xmlns="http://www.w3.org/2000/svg" xmlns:xlink="http://www.w3.org/1999/xlink" x="0px" y="0px"
	 width="57.692px" height="50.314px" viewBox="0 0 57.692 50.314" style="enable-background:new 0 0 57.692 50.314;"
	 xml:space="preserve">
<g id="_x32_6_x5F_vertical_x5F_scale">
	<g>
		<g>
			<path style="fill:#44444D;" d="M38.182,9.154c-1.02,0-1.847-0.826-1.847-1.846V3.691H3.692v3.617c0,1.02-0.827,1.846-1.846,1.846
				S0,8.328,0,7.309V1.846C0,0.826,0.827,0,1.846,0h36.335c1.02,0,1.846,0.826,1.846,1.846v5.463
				C40.027,8.328,39.201,9.154,38.182,9.154z"/>
		</g>
		<g>
			<path style="fill:#44444D;" d="M20.014,50.314c-1.02,0-1.846-0.826-1.846-1.846V6.719c0-1.02,0.827-1.846,1.846-1.846
				s1.846,0.826,1.846,1.846v41.75C21.86,49.488,21.034,50.314,20.014,50.314z"/>
		</g>
		<g>
			<path style="fill:#44444D;" d="M24.78,50.314H15.25c-1.02,0-1.846-0.826-1.846-1.846s0.827-1.846,1.846-1.846h9.529
				c1.02,0,1.846,0.826,1.846,1.846S25.799,50.314,24.78,50.314z"/>
		</g>
		<g>
			<g>
				<g>
					<path style="fill:#44444D;" d="M50.184,42.736c-0.65,0-1.3-0.26-1.76-0.729c-0.471-0.46-0.74-1.11-0.74-1.771
						s0.27-1.3,0.74-1.77c0.92-0.931,2.6-0.931,3.529,0c0.471,0.47,0.73,1.109,0.73,1.77s-0.26,1.3-0.73,1.771
						C51.484,42.477,50.844,42.736,50.184,42.736z"/>
				</g>
				<g>
					<path style="fill:#44444D;" d="M47.684,32.696c0-1.38,1.12-2.5,2.5-2.5l0,0c1.381,0,2.5,1.12,2.5,2.5l0,0
						c0,1.38-1.119,2.5-2.5,2.5l0,0C48.804,35.196,47.684,34.076,47.684,32.696z M47.684,25.156c0-1.38,1.12-2.5,2.5-2.5l0,0
						c1.381,0,2.5,1.12,2.5,2.5l0,0c0,1.38-1.119,2.5-2.5,2.5l0,0C48.804,27.656,47.684,26.536,47.684,25.156z M47.684,17.616
						c0-1.38,1.12-2.5,2.5-2.5l0,0c1.381,0,2.5,1.12,2.5,2.5l0,0c0,1.381-1.119,2.5-2.5,2.5l0,0
						C48.804,20.116,47.684,18.997,47.684,17.616z"/>
				</g>
				<g>
					<path style="fill:#44444D;" d="M50.184,12.576c-0.65,0-1.3-0.27-1.77-0.729c-0.461-0.47-0.73-1.11-0.73-1.771
						c0-0.659,0.27-1.31,0.73-1.77c0.939-0.93,2.609-0.93,3.539,0c0.471,0.47,0.73,1.11,0.73,1.77c0,0.66-0.26,1.301-0.73,1.771
						C51.494,12.307,50.844,12.576,50.184,12.576z"/>
				</g>
			</g>
			<g>
				<path style="fill:#44444D;" d="M55.846,9.352c-0.473,0-0.944-0.18-1.305-0.54l-4.354-4.355l-4.356,4.355
					c-0.722,0.721-1.89,0.721-2.61,0C42.5,8.09,42.5,6.921,43.221,6.2l5.661-5.66C49.229,0.194,49.697,0,50.188,0l0,0
					c0.489,0,0.959,0.194,1.305,0.54l5.66,5.66c0.721,0.722,0.721,1.891-0.001,2.611C56.791,9.172,56.318,9.352,55.846,9.352z"/>
			</g>
			<g>
				<path style="fill:#44444D;" d="M50.188,50.314c-0.49,0-0.959-0.194-1.306-0.54l-5.661-5.66c-0.721-0.721-0.721-1.89,0-2.611
					c0.721-0.721,1.89-0.721,2.61,0l4.356,4.355l4.354-4.355c0.721-0.721,1.89-0.721,2.61,0c0.722,0.721,0.722,1.89,0.001,2.611
					l-5.66,5.66C51.146,50.12,50.677,50.314,50.188,50.314z"/>
			</g>
		</g>
	</g>
</g>
<g id="Layer_1">
</g>
</svg>
