<svg xmlns="http://www.w3.org/2000/svg" width="16" height="16" viewBox="0 0 16 16">
    <g fill="none" stroke="#000" stroke-linecap="round" stroke-linejoin="round" stroke-miterlimit="10">
        <path d="M11.91 7.63l1.86-1.86a2.5 2.5 0 0 0-3.54-3.54l-3.5 3.5C6.28 6.18 6 6.81 6 7.5c0 .17.02.33.05.48.01.01.01.02 0 .03.14.66.54 1.23 1.08 1.58"/>
        <path d="M4.09 8.37l-1.86 1.86a2.5 2.5 0 0 0 3.54 3.54l1.86-1.86 1.64-1.64c.45-.45.73-1.08.73-1.77 0-.51-.15-.99-.42-1.38-.18-.28-.42-.52-.7-.7"/>
    </g>
</svg>
