<?xml version="1.0" encoding="iso-8859-1"?>
<!-- Generator: Adobe Illustrator 16.0.0, SVG Export Plug-In . SVG Version: 6.00 Build 0)  -->
<!DOCTYPE svg PUBLIC "-//W3C//DTD SVG 1.1//EN" "http://www.w3.org/Graphics/SVG/1.1/DTD/svg11.dtd">
<svg version="1.1" xmlns="http://www.w3.org/2000/svg" xmlns:xlink="http://www.w3.org/1999/xlink" x="0px" y="0px"
	 width="57.692px" height="57.691px" viewBox="0 0 57.692 57.691" style="enable-background:new 0 0 57.692 57.691;"
	 xml:space="preserve">
<g id="_x34_9_x5F_print">
	<g>
		<g>
			<g>
				<path style="fill:#44444D;" d="M11.391,39.299H7.868C3.53,39.299,0,35.77,0,31.432V17.475c0-4.338,3.53-7.867,7.868-7.867
					h41.956c4.338,0,7.868,3.529,7.868,7.867c0,1.02-0.827,1.846-1.847,1.846S54,18.494,54,17.475c0-2.303-1.873-4.176-4.176-4.176
					H7.868c-2.303,0-4.176,1.873-4.176,4.176v13.957c0,2.303,1.873,4.176,4.176,4.176h3.523c1.02,0,1.846,0.826,1.846,1.846
					S12.411,39.299,11.391,39.299z"/>
			</g>
			<g>
				<path style="fill:#44444D;" d="M51.17,39.147c-0.841,0-1.6-0.577-1.798-1.431c-0.229-0.993,0.39-1.985,1.383-2.215
					c1.88-0.435,3.245-2.146,3.245-4.07v-8.613c0-1.02,0.826-1.846,1.846-1.846s1.847,0.826,1.847,1.846v8.613
					c-0.001,3.625-2.568,6.85-6.105,7.668C51.447,39.132,51.307,39.147,51.17,39.147z"/>
			</g>
		</g>
		<g>
			<g>
				<path style="fill:#44444D;" d="M46.301,57.691h-34.91c-1.02,0-1.846-0.826-1.846-1.846v-28.15c0-1.02,0.827-1.846,1.846-1.846
					s1.846,0.826,1.846,1.846V54h31.218V32.34c0-1.02,0.826-1.846,1.846-1.846s1.847,0.826,1.847,1.846v23.506
					C48.147,56.865,47.32,57.691,46.301,57.691z"/>
			</g>
			<g>
				<g>
					<path style="fill:#44444D;" d="M38.287,36.855H19.404c-1.02,0-1.846-0.826-1.846-1.846s0.827-1.846,1.846-1.846h18.883
						c1.02,0,1.847,0.826,1.847,1.846S39.307,36.855,38.287,36.855z"/>
				</g>
				<g>
					<path style="fill:#44444D;" d="M38.287,43.865H19.404c-1.02,0-1.846-0.826-1.846-1.846s0.827-1.846,1.846-1.846h18.883
						c1.02,0,1.847,0.826,1.847,1.846S39.307,43.865,38.287,43.865z"/>
				</g>
				<g>
					<path style="fill:#44444D;" d="M38.287,50.869H19.404c-1.02,0-1.846-0.826-1.846-1.846s0.827-1.846,1.846-1.846h18.883
						c1.02,0,1.847,0.826,1.847,1.846S39.307,50.869,38.287,50.869z"/>
				</g>
			</g>
		</g>
		<g>
			<path style="fill:#44444D;" d="M49.195,29.541H8.497c-1.02,0-1.846-0.826-1.846-1.846v-3.584c0-1.02,0.827-1.846,1.846-1.846
				s1.846,0.826,1.846,1.846v1.738H47.35v-1.738c0-1.02,0.826-1.846,1.846-1.846s1.847,0.826,1.847,1.846v3.584
				C51.042,28.715,50.215,29.541,49.195,29.541z"/>
		</g>
		<g>
			<path style="fill:#44444D;" d="M49.195,19.879h-2.616c-1.02,0-1.847-0.826-1.847-1.846s0.827-1.846,1.847-1.846h2.616
				c1.02,0,1.847,0.826,1.847,1.846S50.215,19.879,49.195,19.879z"/>
		</g>
		<g>
			<g>
				<path style="fill:#44444D;" d="M46.301,13.299c-1.02,0-1.846-0.826-1.846-1.846V7.096c0-1.02,0.826-1.846,1.846-1.846
					s1.847,0.826,1.847,1.846v4.357C48.147,12.473,47.32,13.299,46.301,13.299z"/>
			</g>
			<g>
				<path style="fill:#44444D;" d="M11.391,13.299c-1.02,0-1.846-0.826-1.846-1.846V1.846C9.545,0.826,10.372,0,11.391,0h34.91
					c1.02,0,1.847,0.826,1.847,1.846s-0.827,1.846-1.847,1.846H13.237v7.762C13.237,12.473,12.411,13.299,11.391,13.299z"/>
			</g>
		</g>
	</g>
</g>
<g id="Layer_1">
</g>
</svg>
