<?xml version="1.0" encoding="iso-8859-1"?>
<!-- Generator: Adobe Illustrator 16.0.0, SVG Export Plug-In . SVG Version: 6.00 Build 0)  -->
<!DOCTYPE svg PUBLIC "-//W3C//DTD SVG 1.1//EN" "http://www.w3.org/Graphics/SVG/1.1/DTD/svg11.dtd">
<svg version="1.1" xmlns="http://www.w3.org/2000/svg" xmlns:xlink="http://www.w3.org/1999/xlink" x="0px" y="0px"
	 width="57.691px" height="51.691px" viewBox="0 0 57.691 51.691" style="enable-background:new 0 0 57.691 51.691;"
	 xml:space="preserve">
<g id="_x32_9_x5F_small_x5F_caps">
	<g>
		<g>
			<g>
				<path style="fill:#44444D;" d="M39.736,9.414c-1.02,0-1.846-0.826-1.846-1.846V3.691H3.691v3.877
					c0,1.02-0.826,1.846-1.846,1.846S0,8.588,0,7.568V1.846C0,0.826,0.826,0,1.846,0h37.891c1.02,0,1.846,0.826,1.846,1.846v5.723
					C41.582,8.588,40.756,9.414,39.736,9.414z"/>
			</g>
			<g>
				<path style="fill:#44444D;" d="M20.791,51.691c-1.02,0-1.846-0.826-1.846-1.846v-43c0-1.02,0.826-1.846,1.846-1.846
					s1.846,0.826,1.846,1.846v43C22.637,50.865,21.811,51.691,20.791,51.691z"/>
			</g>
			<g>
				<path style="fill:#44444D;" d="M25.815,51.691H15.768c-1.02,0-1.846-0.826-1.846-1.846S14.748,48,15.768,48h10.048
					c1.02,0,1.846,0.826,1.846,1.846S26.835,51.691,25.815,51.691z"/>
			</g>
		</g>
		<g>
			<g>
				<path style="fill:#44444D;" d="M55.846,27.697c-1.02,0-1.846-0.826-1.846-1.846v-1.402H30.268v1.402
					c0,1.02-0.826,1.846-1.846,1.846s-1.846-0.826-1.846-1.846v-3.248c0-1.02,0.826-1.846,1.846-1.846h27.424
					c1.02,0,1.846,0.826,1.846,1.846v3.248C57.691,26.871,56.865,27.697,55.846,27.697z"/>
			</g>
			<g>
				<path style="fill:#44444D;" d="M42.134,51.691c-1.02,0-1.846-0.826-1.846-1.846V27.604c0-1.02,0.826-1.846,1.846-1.846
					s1.846,0.826,1.846,1.846v22.242C43.979,50.865,43.153,51.691,42.134,51.691z"/>
			</g>
			<g>
				<path style="fill:#44444D;" d="M44.985,51.691h-5.702c-1.02,0-1.846-0.826-1.846-1.846S38.264,48,39.283,48h5.702
					c1.02,0,1.846,0.826,1.846,1.846S46.005,51.691,44.985,51.691z"/>
			</g>
		</g>
	</g>
</g>
<g id="Layer_1">
</g>
</svg>
