<?xml version="1.0" encoding="iso-8859-1"?>
<!-- Generator: Adobe Illustrator 16.0.0, SVG Export Plug-In . SVG Version: 6.00 Build 0)  -->
<!DOCTYPE svg PUBLIC "-//W3C//DTD SVG 1.1//EN" "http://www.w3.org/Graphics/SVG/1.1/DTD/svg11.dtd">
<svg version="1.1" xmlns="http://www.w3.org/2000/svg" xmlns:xlink="http://www.w3.org/1999/xlink" x="0px" y="0px"
	 width="41.867px" height="51.681px" viewBox="0 0 41.867 51.681" style="enable-background:new 0 0 41.867 51.681;"
	 xml:space="preserve">
<g id="_x32_1_x5F_srikethrough">
	<g>
		<g>
			<path style="fill:#44444D;" d="M22.19,51.681c-5.608,0-11.9-1.743-17.933-5.09c-0.892-0.495-1.214-1.618-0.719-2.51
				c0.493-0.892,1.616-1.216,2.51-0.719c8.041,4.46,16.438,5.806,22.459,3.598c2.844-1.042,4.796-2.78,5.646-5.024
				c1.493-3.947,0.66-6.912-2.698-9.615c-0.795-0.639-0.92-1.801-0.281-2.596c0.641-0.794,1.803-0.92,2.596-0.28
				c4.607,3.707,5.898,8.349,3.837,13.798c-1.223,3.23-4.003,5.782-7.828,7.185C27.483,51.268,24.917,51.68,22.19,51.681z"/>
		</g>
		<g>
			<path style="fill:#44444D;" d="M22.683,27.678c-0.204,0-0.411-0.034-0.614-0.105c-0.629-0.223-1.279-0.441-1.955-0.658
				C9.856,23.618,7.295,18.022,6.68,14.98c-0.84-4.159,0.763-8.45,4.288-11.478c7.142-6.147,18.938-3.532,25.058,2.661
				c0.716,0.725,0.709,1.894-0.016,2.61c-0.727,0.717-1.895,0.71-2.611-0.016c-4.389-4.442-14.13-7.525-20.023-2.456
				c-2.498,2.146-3.647,5.116-3.076,7.947c0.785,3.884,4.671,7.133,10.943,9.15c0.709,0.227,1.395,0.458,2.055,0.691
				c0.962,0.339,1.466,1.394,1.127,2.355C24.156,27.203,23.443,27.678,22.683,27.678z"/>
		</g>
		<g>
			<path style="fill:#44444D;" d="M40.021,27.679H1.846C0.826,27.679,0,26.852,0,25.833s0.826-1.846,1.846-1.846h38.176
				c1.02,0,1.846,0.827,1.846,1.846S41.041,27.679,40.021,27.679z"/>
		</g>
		<g>
			<path style="fill:#44444D;" d="M32.373,12.409c-0.388,0-0.777-0.121-1.11-0.372c-0.813-0.613-0.977-1.771-0.363-2.585
				l4.676-6.205c0.614-0.815,1.771-0.977,2.586-0.363c0.813,0.613,0.977,1.771,0.363,2.585l-4.676,6.205
				C33.485,12.155,32.933,12.409,32.373,12.409z"/>
		</g>
		<g>
			<path style="fill:#44444D;" d="M2.814,49.926c-0.388,0-0.777-0.121-1.11-0.373c-0.813-0.613-0.977-1.771-0.363-2.584l4.676-6.205
				c0.614-0.816,1.771-0.978,2.586-0.363c0.813,0.613,0.977,1.771,0.363,2.584L4.29,49.189C3.927,49.672,3.374,49.926,2.814,49.926z
				"/>
		</g>
	</g>
</g>
<g id="Layer_1">
</g>
</svg>
